<?xml version="1.0" encoding="UTF-8"?>
<svg xmlns="http://www.w3.org/2000/svg" width="369" height="100" viewBox="0 0 369 100" fill="none">
<path fill-rule="evenodd" clip-rule="evenodd" d="M0 40V60H20V80H0V100H20V80H40V60H60V40H40V20H60V0H40V20H20V40H0ZM20 40H40V60H20V40Z" fill="#262525"/>
<path d="M128.795 48.1648L121.04 48.642C120.907 47.9792 120.622 47.3826 120.185 46.8523C119.747 46.3087 119.17 45.8778 118.455 45.5597C117.752 45.2282 116.91 45.0625 115.929 45.0625C114.616 45.0625 113.509 45.3409 112.608 45.8977C111.706 46.4413 111.256 47.1705 111.256 48.0852C111.256 48.8144 111.547 49.4309 112.131 49.9347C112.714 50.4384 113.715 50.8428 115.134 51.1477L120.662 52.2614C123.632 52.8712 125.846 53.8523 127.304 55.2045C128.762 56.5568 129.491 58.3333 129.491 60.5341C129.491 62.536 128.902 64.2926 127.722 65.804C126.555 67.3153 124.951 68.4953 122.909 69.3438C120.881 70.179 118.541 70.5966 115.889 70.5966C111.846 70.5966 108.624 69.7547 106.224 68.071C103.838 66.3741 102.439 64.0672 102.028 61.1506L110.361 60.7131C110.613 61.946 111.223 62.8873 112.19 63.5369C113.158 64.1733 114.398 64.4915 115.909 64.4915C117.394 64.4915 118.587 64.2064 119.489 63.6364C120.403 63.053 120.867 62.304 120.881 61.3892C120.867 60.6203 120.543 59.9905 119.906 59.5C119.27 58.9962 118.289 58.6117 116.963 58.3466L111.673 57.2926C108.69 56.696 106.47 55.6619 105.011 54.1903C103.566 52.7188 102.844 50.8428 102.844 48.5625C102.844 46.6004 103.374 44.91 104.435 43.4915C105.509 42.0729 107.013 40.9792 108.949 40.2102C110.898 39.4413 113.178 39.0568 115.79 39.0568C119.648 39.0568 122.684 39.8722 124.898 41.5028C127.125 43.1335 128.424 45.3542 128.795 48.1648Z" fill="#262525"/>
<path d="M154.414 56.9943V39.4545H162.886V70H154.752V64.4517H154.434C153.745 66.2415 152.598 67.6799 150.994 68.767C149.403 69.8542 147.46 70.3977 145.167 70.3977C143.125 70.3977 141.329 69.9337 139.778 69.0057C138.227 68.0777 137.013 66.7585 136.138 65.0483C135.277 63.3381 134.839 61.2898 134.826 58.9034V39.4545H143.298V57.392C143.311 59.1951 143.795 60.6203 144.749 61.6676C145.704 62.715 146.983 63.2386 148.587 63.2386C149.608 63.2386 150.563 63.0066 151.451 62.5426C152.339 62.0653 153.055 61.3627 153.599 60.4347C154.156 59.5066 154.427 58.3598 154.414 56.9943Z" fill="#262525"/>
<path d="M169.662 81.4545V39.4545H178.014V44.5852H178.392C178.763 43.7633 179.3 42.928 180.003 42.0795C180.719 41.2178 181.647 40.5019 182.787 39.9318C183.94 39.3485 185.372 39.0568 187.082 39.0568C189.31 39.0568 191.365 39.6402 193.247 40.8068C195.13 41.9602 196.634 43.7036 197.761 46.0369C198.888 48.357 199.452 51.267 199.452 54.767C199.452 58.1742 198.902 61.0511 197.801 63.3977C196.714 65.7311 195.229 67.501 193.347 68.7074C191.477 69.9006 189.383 70.4972 187.062 70.4972C185.419 70.4972 184.02 70.2254 182.866 69.6818C181.726 69.1383 180.792 68.4555 180.062 67.6335C179.333 66.7983 178.777 65.9564 178.392 65.108H178.134V81.4545H169.662ZM177.955 54.7273C177.955 56.5436 178.206 58.1278 178.71 59.4801C179.214 60.8324 179.943 61.8864 180.898 62.642C181.852 63.3845 183.012 63.7557 184.378 63.7557C185.757 63.7557 186.923 63.3778 187.878 62.6222C188.832 61.8532 189.555 60.7926 190.045 59.4403C190.549 58.0748 190.801 56.5038 190.801 54.7273C190.801 52.964 190.556 51.4129 190.065 50.0739C189.575 48.7348 188.852 47.6875 187.898 46.9318C186.943 46.1761 185.77 45.7983 184.378 45.7983C182.999 45.7983 181.832 46.1629 180.878 46.892C179.937 47.6212 179.214 48.6553 178.71 49.9943C178.206 51.3333 177.955 52.911 177.955 54.7273Z" fill="#262525"/>
<path d="M216.355 70.4972C214.035 70.4972 211.934 69.9006 210.051 68.7074C208.182 67.501 206.697 65.7311 205.597 63.3977C204.509 61.0511 203.966 58.1742 203.966 54.767C203.966 51.267 204.529 48.357 205.656 46.0369C206.783 43.7036 208.281 41.9602 210.151 40.8068C212.033 39.6402 214.095 39.0568 216.335 39.0568C218.045 39.0568 219.471 39.3485 220.611 39.9318C221.764 40.5019 222.692 41.2178 223.395 42.0795C224.111 42.928 224.654 43.7633 225.026 44.5852H225.284V39.4545H233.736V70H225.384V65.108H225.026C224.628 65.9564 224.064 66.7983 223.335 67.6335C222.619 68.4555 221.685 69.1383 220.531 69.6818C219.391 70.2254 217.999 70.4972 216.355 70.4972ZM219.04 63.7557C220.405 63.7557 221.559 63.3845 222.5 62.642C223.455 61.8864 224.184 60.8324 224.688 59.4801C225.205 58.1278 225.463 56.5436 225.463 54.7273C225.463 52.911 225.211 51.3333 224.707 49.9943C224.204 48.6553 223.474 47.6212 222.52 46.892C221.565 46.1629 220.405 45.7983 219.04 45.7983C217.648 45.7983 216.474 46.1761 215.52 46.9318C214.565 47.6875 213.843 48.7348 213.352 50.0739C212.862 51.4129 212.616 52.964 212.616 54.7273C212.616 56.5038 212.862 58.0748 213.352 59.4403C213.856 60.7926 214.579 61.8532 215.52 62.6222C216.474 63.3778 217.648 63.7557 219.04 63.7557Z" fill="#262525"/>
<path d="M246.727 70L238.414 39.4545H246.985L251.718 59.9773H251.996L256.928 39.4545H265.34L270.352 59.858H270.61L275.263 39.4545H283.815L275.522 70H266.553L261.303 50.7898H260.925L255.675 70H246.727Z" fill="#262525"/>
<path d="M298.824 70.4972C296.504 70.4972 294.402 69.9006 292.52 68.7074C290.651 67.501 289.166 65.7311 288.065 63.3977C286.978 61.0511 286.435 58.1742 286.435 54.767C286.435 51.267 286.998 48.357 288.125 46.0369C289.252 43.7036 290.75 41.9602 292.619 40.8068C294.502 39.6402 296.563 39.0568 298.804 39.0568C300.514 39.0568 301.939 39.3485 303.08 39.9318C304.233 40.5019 305.161 41.2178 305.864 42.0795C306.58 42.928 307.123 43.7633 307.494 44.5852H307.753V39.4545H316.205V70H307.852V65.108H307.494C307.097 65.9564 306.533 66.7983 305.804 67.6335C305.088 68.4555 304.153 69.1383 303 69.6818C301.86 70.2254 300.468 70.4972 298.824 70.4972ZM301.509 63.7557C302.874 63.7557 304.027 63.3845 304.969 62.642C305.923 61.8864 306.652 60.8324 307.156 59.4801C307.673 58.1278 307.932 56.5436 307.932 54.7273C307.932 52.911 307.68 51.3333 307.176 49.9943C306.672 48.6553 305.943 47.6212 304.989 46.892C304.034 46.1629 302.874 45.7983 301.509 45.7983C300.116 45.7983 298.943 46.1761 297.989 46.9318C297.034 47.6875 296.312 48.7348 295.821 50.0739C295.33 51.4129 295.085 52.964 295.085 54.7273C295.085 56.5038 295.33 58.0748 295.821 59.4403C296.325 60.7926 297.047 61.8532 297.989 62.6222C298.943 63.3778 300.116 63.7557 301.509 63.7557Z" fill="#262525"/>
<path d="M323.17 29.2727H331.641V60.8523C331.655 61.8201 331.827 62.5227 332.158 62.9602C332.503 63.3845 333.086 63.5966 333.908 63.5966C334.333 63.5833 334.664 63.5568 334.903 63.517C335.141 63.4773 335.34 63.4242 335.499 63.358L336.852 69.5227C336.414 69.6553 335.877 69.7945 335.241 69.9403C334.618 70.0729 333.776 70.1591 332.715 70.1989C329.467 70.3182 327.067 69.7083 325.516 68.3693C323.965 67.017 323.183 64.8892 323.17 61.9858V29.2727Z" fill="#262525"/>
<path d="M351.269 70.4972C348.949 70.4972 346.848 69.9006 344.965 68.7074C343.096 67.501 341.611 65.7311 340.511 63.3977C339.424 61.0511 338.88 58.1742 338.88 54.767C338.88 51.267 339.443 48.357 340.57 46.0369C341.697 43.7036 343.195 41.9602 345.065 40.8068C346.947 39.6402 349.009 39.0568 351.249 39.0568C352.96 39.0568 354.385 39.3485 355.525 39.9318C356.678 40.5019 357.606 41.2178 358.309 42.0795C359.025 42.928 359.568 43.7633 359.94 44.5852H360.198V29.2727H368.65V70H360.298V65.108H359.94C359.542 65.9564 358.978 66.7983 358.249 67.6335C357.533 68.4555 356.599 69.1383 355.445 69.6818C354.305 70.2254 352.913 70.4972 351.269 70.4972ZM353.954 63.7557C355.319 63.7557 356.473 63.3845 357.414 62.642C358.369 61.8864 359.098 60.8324 359.602 59.4801C360.119 58.1278 360.377 56.5436 360.377 54.7273C360.377 52.911 360.125 51.3333 359.621 49.9943C359.118 48.6553 358.389 47.6212 357.434 46.892C356.479 46.1629 355.319 45.7983 353.954 45.7983C352.562 45.7983 351.389 46.1761 350.434 46.9318C349.479 47.6875 348.757 48.7348 348.266 50.0739C347.776 51.4129 347.531 52.964 347.531 54.7273C347.531 56.5038 347.776 58.0748 348.266 59.4403C348.77 60.7926 349.493 61.8532 350.434 62.6222C351.389 63.3778 352.562 63.7557 353.954 63.7557Z" fill="#262525"/>
</svg>